<svg aria-hidden="true" style="position: absolute; width: 0; height: 0; overflow: hidden;" version="1.1" xmlns="http://www.w3.org/2000/svg" xmlns:xlink="http://www.w3.org/1999/xlink">
<defs>
<symbol id="icon-browser" viewBox="0 0 24 24">
<path d="M0 1v22h24v-22h-24zM22 21h-20v-13h20v13zM22 7h-20v-4h20v4zM11 4h-2v2h2v-2zM8 4h-2v2h2v-2zM5 4h-2v2h2v-2z"></path>
</symbol>
<symbol id="icon-bars" viewBox="0 0 24 24">
<path d="M23 22v-1h-1v1h-1v-10h-5v10h-1v-20h-5v20h-1v-12h-1v-1h-1v1h-2v-1h-1v13h-2v-22h-2v24h24v-2h-1zM7 22h-1v-10h1v10zM13 22h-1v-18h1v18zM19 22h-1v-8h1v8zM4 0h1v1h-1zM7 0h1v1h-1zM10 0h1v1h-1zM13 0h1v1h-1zM16 0h1v1h-1zM19 0h1v1h-1zM22 0h1v1h-1zM22 3h1v1h-1zM19 3h1v1h-1zM16 3h1v1h-1zM16 6h1v1h-1zM19 6h1v1h-1zM22 6h1v1h-1zM22 9.002h1v1h-1zM19 9h1v1h-1zM16 9h1v1h-1zM22 12h1v1h-1zM22 15h1v1h-1zM22 18h1v1h-1zM7 3h1v1h-1zM7 6h1v1h-1zM4 6h1v1h-1zM4 3h1v1h-1z"></path>
</symbol>
<symbol id="icon-heart" viewBox="0 0 20 20">
<path d="M17.19 4.155c-1.672-1.534-4.383-1.534-6.055 0l-1.135 1.042-1.136-1.042c-1.672-1.534-4.382-1.534-6.054 0-1.881 1.727-1.881 4.52 0 6.246l7.19 6.599 7.19-6.599c1.88-1.726 1.88-4.52 0-6.246z"></path>
</symbol>
<symbol id="icon-share" viewBox="0 0 20 20">
<path d="M15 13.442c-0.633 0-1.204 0.246-1.637 0.642l-5.938-3.463c0.046-0.188 0.075-0.384 0.075-0.584s-0.029-0.395-0.075-0.583l5.875-3.429c0.446 0.417 1.042 0.675 1.7 0.675 1.379 0 2.5-1.121 2.5-2.5s-1.121-2.5-2.5-2.5-2.5 1.121-2.5 2.5c0 0.2 0.029 0.396 0.075 0.583l-5.875 3.429c-0.446-0.416-1.042-0.675-1.7-0.675-1.379 0-2.5 1.121-2.5 2.5s1.121 2.5 2.5 2.5c0.658 0 1.254-0.258 1.7-0.675l5.938 3.463c-0.042 0.175-0.067 0.358-0.067 0.546 0 1.342 1.087 2.429 2.429 2.429s2.429-1.088 2.429-2.429-1.087-2.429-2.429-2.429z"></path>
</symbol>
<symbol id="icon-star" viewBox="0 0 20 20">
<path d="M10 1.3l2.388 6.722h6.412l-5.232 3.948 1.871 6.928-5.439-4.154-5.438 4.154 1.87-6.928-5.233-3.948h6.412l2.389-6.722z"></path>
</symbol>
</defs>
</svg>
